# xmcd CD database file generated by OrangeCD 5.2
#
# Track frame offsets:
#	150
#	14711
#	30906
#	51333
#	71536
#	88637
#	101923
#	120861
#	136300
#	151525
#	168246
#	187139
#
# Disc length: 2689 seconds
#
# Revision: 0
# Processed by: cddbd v1.5.1PL0 Copyright (c) Steve Scherf et al.
# Submitted via: OrangeCD 5.2
#
DISCID=950a7f0c
DTITLE=The Deans - Multiplication
DYEAR=2004
DGENRE=Country
TTITLE0=Multiplication
TTITLE1=Eddie Cochran Medley
TTITLE2=Just can't Help Believing
TTITLE3=Remember When
TTITLE4=Fire
TTITLE5=The Shape I'm In
TTITLE6=Jim Reeves Waltz Medley
TTITLE7=Some Beach
TTITLE8=Buddy Holly Rave On Medley
TTITLE9=Treat Me Like A Fool
TTITLE10=Who's Been Sleepin'
TTITLE11=Let's Go Little Darlin'
EXTD=
EXTT0=
EXTT1=
EXTT2=
EXTT3=
EXTT4=
EXTT5=
EXTT6=
EXTT7=
EXTT8=
EXTT9=
EXTT10=
EXTT11=
PLAYORDER=
